<svg width="120" height="120" viewBox="0 0 120 120" fill="none" xmlns="http://www.w3.org/2000/svg">
  <rect width="120" height="120" rx="32" fill="#25D366"></rect>
  <circle cx="60" cy="60" r="40" fill="#fff"></circle>
  <!-- Cabeza de bot -->
  <ellipse cx="60" cy="56" rx="22" ry="18" fill="#25D366"></ellipse>
  <!-- Antenas -->
  <rect x="53" y="30" width="4" height="14" rx="2" fill="#25D366"></rect>
  <rect x="63" y="30" width="4" height="14" rx="2" fill="#25D366"></rect>
  <!-- Ojos -->
  <circle cx="54" cy="56" r="3" fill="#fff"></circle>
  <circle cx="66" cy="56" r="3" fill="#fff"></circle>
  <circle cx="54" cy="56" r="1.5" fill="#222"></circle>
  <circle cx="66" cy="56" r="1.5" fill="#222"></circle>
  <!-- Boca (sonrisa tipo bot) -->
  <path d="M56 64 Q60 70 64 64" stroke="#fff" stroke-width="2" fill="none"></path>
  <!-- Icono WPP -->
  <g>
    <circle cx="100" cy="100" r="14" fill="#fff"></circle>
    <path d="M100 89c6.08 0 11 4.92 11 11 0 1.2-.18 2.38-.54 3.5l.46 4.5-4.64-2.39A10.95 10.95 0 0 1 100 111c-6.08 0-11-4.92-11-11s4.92-11 11-11z" fill="#25D366"></path>
    </g></svg>