<svg width="52" height="52" viewBox="0 0 52 52" fill="none" xmlns="http://www.w3.org/2000/svg">
<path d="M25.3273 0.468018H0.00129207L5.32966 5.73942H25.3273C30.7425 5.73942 35.9357 7.8735 39.7648 11.6722C43.5939 15.4709 45.7452 20.623 45.7452 25.9952C45.7452 31.3673 43.5939 36.5196 39.7648 40.3181C35.9357 44.1167 30.7425 46.251 25.3273 46.251H12.8437L17.7188 41.4214H25.3308C29.4537 41.4214 33.4077 39.7967 36.3229 36.9045C39.2384 34.0122 40.8763 30.0896 40.8763 25.9995C40.8763 21.9093 39.2384 17.9867 36.3229 15.0945C33.4077 12.2024 29.4537 10.5776 25.3308 10.5776H10.1956L22.3534 22.6302H25.3273C26.2264 22.6302 27.0887 22.9845 27.7245 23.6153C28.3603 24.246 28.7174 25.1015 28.7174 25.9934C28.7174 26.8854 28.3603 27.7409 27.7245 28.3716C27.0887 29.0023 26.2264 29.3567 25.3273 29.3567H22.3626L16.919 34.7593H25.3273C26.4869 34.7593 27.6351 34.5327 28.7064 34.0925C29.7776 33.6522 30.751 33.007 31.571 32.1936C32.3909 31.3802 33.0413 30.4145 33.485 29.3517C33.9288 28.2889 34.1572 27.1498 34.1572 25.9995C34.1572 24.8491 33.9288 23.71 33.485 22.6473C33.0413 21.5845 32.3909 20.6188 31.571 19.8054C30.751 18.992 29.7776 18.3467 28.7064 17.9065C27.6351 17.4663 26.4869 17.2397 25.3273 17.2397H24.4343L23.1603 15.9736H23.1934L25.3273 15.968C28.0089 15.968 30.5807 17.0249 32.4769 18.906C34.3731 20.7871 35.4383 23.3385 35.4383 25.9988C35.4383 28.6592 34.3731 31.2105 32.4769 33.0917C30.5807 34.9728 28.0089 36.0298 25.3273 36.0298H15.6319L0.00694688 51.5319H25.3273C32.1531 51.5319 38.6994 48.8418 43.526 44.0535C48.3526 39.2652 51.0639 32.7711 51.0639 25.9995C51.0639 19.2279 48.3526 12.7336 43.526 7.94541C38.6994 3.15716 32.1531 0.468018 25.3273 0.468018Z" fill="#9747FF"/>
<path d="M18.4727 25.9974L0 7.67177L0 44.3267L18.4727 25.9974Z" fill="#9747FF"/>
</svg>
